<svg xmlns="http://www.w3.org/2000/svg" height="270" width="1270" viewBox="47 377 1270 270"><defs><clipPath id="a"><path d="M0 768h1024V0H0z"/></clipPath></defs><g clip-path="url(#a)" transform="matrix(1.33333 0 0 -1.33333 0 1024)"><path d="M93.13 374c7.38 0 13.37 1.96 16.71 5.3a11.46 11.46 0 0 1 3.48 8.36 8.2 8.2 0 0 1-2.65 6.4c-2.22 2.23-6.12 3.48-11.83 3.48H84.07l-6.4-23.53zm-9.06-21.17H72.1l-7.94-29.52H37l26.32 97.5h36.77c16.16 0 26.88-3.49 33.43-10.03 5.15-5.16 7.52-12.26 7.52-20.06 0-9.2-2.93-17.41-9.2-23.54-4.17-4.18-10.3-8.22-20.19-11l15.18-32.87h-29.8zm56.27 2.79c0 4.88.69 10.31 2.22 15.6l13.23 49.58h27.3l-13.79-51.53a34.18 34.18 0 0 1-1.4-9.2c0-8.76 5.44-14.2 15.2-14.2a18.5 18.5 0 0 1 13.23 5.16c3.48 3.48 6.12 8.35 8.21 16.15l14.35 53.62h27.3l-15.46-57.66c-3.48-12.81-8.36-22.28-15.19-29.1-8.63-8.64-20.89-12.54-35.93-12.54-24.93 0-39.27 12.67-39.27 34.12M255.5 420.8h25.08l25.35-54.17 14.62 54.17h26.74l-26.18-97.5h-23.68l-26.32 56.28-15.04-56.27h-26.88z" fill="#1565c0"/><path d="M489.26 420.8h11v-58.22l56 58.22h14.2l-41.78-42.61 43.59-54.88h-13.8l-37.46 47.21-20.75-21.02v-26.2h-11zm134.12-49.72c14.62 0 25.06 7.53 25.06 20.06v.28c0 11.97-9.19 19.22-24.93 19.22h-30.08v-39.56zm-40.95 49.72h41.92c11.98 0 21.59-3.62 27.72-9.75 4.73-4.73 7.52-11.56 7.52-19.21v-.28c0-16.16-11.15-25.63-26.46-28.42l29.94-39.83h-13.5l-28.28 37.88h-27.86v-37.88h-11zm156.96-61.7l-22.15 49.59-22.28-49.59zm-27.16 62.4h10.3l44.43-98.2h-11.83l-11.43 25.78h-53.06l-11.56-25.77H667.8zm67.95-.7h11v-97.5h-11zm32.59 0h10.31l61.42-78.13v78.13h10.72v-97.5h-8.77l-62.96 79.95v-79.94h-10.72zm103.06 0h70.47v-10.02h-59.47v-33.3h53.2v-10.02h-53.2v-34.12H987V323.3h-71.17zM372.55 366c-1.76-.47-3.8-3.94-3.91-3.94-.33.16-.74.2-1.1.2-.54 0-1-.1-1-.1 1.18 1.52 2.81 6.32 2.81 6.32s.48-.45.84-.45a.3.3 0 0 1 .16.04c.37.18.77 1.02.77 1.02l1.19 1c.28-.26-.13-2.27.1-2.35a.7.7 0 0 1 .25-.04c.2 0 .41.04.41.04s-.41-1.72-.52-1.74m40.42 30.82c-.46 1.25-3.24 10.41-3.93 11.82-.68 1.4-1.6 2.54-2 3.31-.4.77-1.46 5.42-1.4 5.7 2.16 7.36-2.82 9.83-4.08 10.47-1.25.64-3.46 1.04-3.88 1.17-.43.13-3.31 1.9-3.67 2.67-.37.77-.06 2.12-.06 2.12 2.02 1.97 2.43 4.92 2.44 4.95a.33.33 0 0 1 .13-.03c.52 0 .78 1.45 1.05 2.27.29.88.59 2 .37 2.2a.21.21 0 0 1-.15.05c-.23 0-.52-.26-.52-.26s.2 1.63.46 2.94c.25 1.3.17 6.62-6.07 7.65-.5.08-.98.12-1.43.12-5.1 0-6.63-5.03-6.77-6.36-.14-1.45-.44-2.6-.4-2.65a.4.4 0 0 1-.16.04c-.44 0-.73-.84-.68-1.6.05-.84.06-2.22.3-2.71.1-.22.2-.28.3-.28.07 0 .12.02.16.04l.1.04c.01-1.93.86-3.76.86-3.76s-.08-.5-.14-.57c-1.3-1.41-3.61-1.96-3.62-2.02-.3 3.3-5.67 6.36-6.05 6.6-.39.24-.39 2.56-1.93 5.28-1.55 2.7-2.74 4.52-2.92 4.83-.18.3.33 1.02.93 2.7.6 1.69 1.1 4.83 1.34 7.21.22 2.37.85 4.82 1 5.53.17.7.6 1.28.9 1.92.3.64.22 1.4.35 1.55a9.07 9.07 0 0 1 1.06 3.8c.02.36.63 2.44.62 2.73 0 .3.43 2.18.46 2.6.03.42.32 1.8.42 2.13.1.34.15 1.23.2 2.1.03.54-.32.88-.69.88-.28 0-.57-.2-.68-.65-.16-.6-.5-1.83-.62-2.13-.13-.3-.43-1.9-.58-2.27-.15-.36-.46-1.44-.46-1.44s-.17.6-.83.7a.7.7 0 0 1-.12 0c-.6 0-1.03-.71-1.03-.71s-.44.75-1 .87a.67.67 0 0 1-.13.01c-.54 0-1.14-.71-1.14-.71s0 .5-.93.54h-.01c-.38 0-1.3-1.06-1.35-1.35-.08-.42-.33-1.28-.43-1.77-.1-.49.49-.64.49-.64-.69-1.8.24-3.8.17-4.04-.12-.83-.1-2.57-.07-2.91.03-.35-1.41-4.5-2.78-7.38-1.39-2.92-2.18-7.42-2.38-8.55-.2-1.14.17-2.36.51-3.02a4.2 4.2 0 0 0 .57-1.47c-.04-.9.51-4.5 1.43-6.83.93-2.35 3.5-6.25 3.5-6.25a28.6 28.6 0 0 1-.64-8.91c.2-1.7.55-6.26.41-7.48-.14-1.22.24-4.22-.01-5.7-.25-1.49-.51-9.33-.62-9.94-.12-.6-1.35-2.2-2-3.76-.32-.78-1.03-3-1.68-5.1a.5.5 0 0 1-.42-.38c-.17-.64-.97-3.98-.97-3.98s-2.22-2.48-2.89-3.65c-.66-1.17-5.48-6-4.28-8.24a1 1 0 0 1 .16-.21 45.81 45.81 0 0 1-2.22-6.14c-2.82-10.03-2.13-16.03-2.81-18.2-.68-2.17-.65-3.4-.22-4.71.43-1.32 2.54-2.95 3.81-3.07h.1c1.3 0 3.7 1.95 4.72 3.22 1.05 1.3 3.21 2.31 5.29 4.27 2.06 1.95 2.53 2.21 3.26 2.47.68.24 2.91.7 3.19.7h.03c-.65-2.09-2.28-14.3-2.62-15.5-.35-1.23-1.48-2.28-3.16-6.88-1.7-4.67-3.44-20.38-4.3-24.46-.32-1.5-.78-2.84-1.28-3.98-.42-.38-1.38-1.32-1.53-1.98l-.17-.71s-.72-.62-.94-2.12c0 0-.65-3.46-1.1-4.67 0 0-1.3-2.1-2.24-3.19 0 0-2.86-2.05-2.54-3.96l-.14-1s.41-.82 1.3-1.02c0 0 5.8-1.57 7.34-1.57h.2s.57-.15 1.31-.15c1 0 2.3.29 2.94 1.64l.22 2.6s.16 1.14.69 1.47c0 0 1.17.85 1.39 3.15 0 0 .24 3.75-.6 4.83v1.12l.15.4c.4 1.05.3 2.26.43 2.83.34 1.52 1.96 5.06 6.03 13.06 3.97 7.8 5.1 12.9 5.2 15.03.11 2.11.32 5.39.49 6.86.17 1.47 3.54 8.3 4.8 10.75 1.22 2.4 3 5.84 6.5 15.42.19.04.44.23.74.76.7 1.2 1.7 6.61 1.7 6.61s.7 3.23.95 6.37c.24 3.12.67 8.34.1 8.6.07 0-.35 2.57-.68 2.64a.7.7 0 0 1-.15.02h-.03c-.13 1.72-.16 2.42.04 3.44.31 1.63.07 3.78.12 4.4.04.63 1.35 3.14 2.11 5.3.76 2.15 3.26 7.83 3.26 7.83 1.3.63 2.35 2.91 2.35 2.91.15-1.67 2.5-4.35 2.53-4.61.04-.27 1.04-3.73 2.58-6.23a83.99 83.99 0 0 1 4.25-5.96s0-.27-.12-.38c-.12-.1-1.05-1.27-1.26-1.5a5.18 5.18 0 0 1-.87-1.62c-.03-.35-.42-1.22-.56-1.7-.14-.5.03-.72.52-.83a1 1 0 0 1 .12-.01c1.04 0 1.59 1.95 1.64 2.01.12.07.24.1.36.1.86 0 1.73-1.48 1.84-1.68.13-.23-.16-1.32-.33-1.52a10.7 10.7 0 0 0-1.94-1.22h-.05a6.6 6.6 0 0 1-1.84-.4c-.6-.27-.5-.98-.5-.98s-.25-.63-.08-.67a7.2 7.2 0 0 0 1.13-.36c-.22-.24 2.67-.86 3.4-.94.2-.02.45-.03.73-.03.7 0 1.5.09 1.73.35.32.38 1.36 1.8 1.28 2.54-.08.74-.07 1.93-.15 3.77-.08 1.83-.06 5.38-.53 6.65m46.21 23.98v-56.68c0-21.31-11.42-32.17-29.38-32.17-16.47 0-27.19 9.37-29.37 26.21l-.24-.43c-.23-.39-.46-.76-.7-1.11-3.07-8.23-4.87-11.81-6.1-14.22 6.42-13.53 19.43-20.62 36.13-20.62 24.37 0 40.67 14.76 40.67 43.17v55.85z" fill="#ffa000"/><path d="M412 303.15h3.32l4.16-12.95 4.3 13h2.6l4.28-13 4.17 12.95h3.22l-6.07-17.59h-2.67l-4.29 12.55-4.29-12.55h-2.64zm43.15 0h12.95v-2.74h-9.88v-4.54h8.76v-2.75h-8.76v-4.69h10v-2.74h-13.07zm62.71-10.52l-3.02 6.98-3-6.98zm-4.39 10.65h2.85l7.68-17.6h-3.24l-1.77 4.23h-8.26l-1.8-4.22h-3.14zm35.05-8.78c2.2 0 3.6 1.14 3.6 2.91v.05c0 1.87-1.35 2.9-3.63 2.9h-4.46v-5.86zm-7.56 8.65h7.78c2.2 0 3.92-.64 5.04-1.74a5.29 5.29 0 0 0 1.45-3.77v-.05c0-2.87-1.72-4.59-4.14-5.29l4.71-6.61h-3.64l-4.29 6.09h-3.84v-6.1h-3.07zm32 0h12.95v-2.74h-9.88v-4.54h8.76v-2.75h-8.76v-4.69h10v-2.74h-13.07zm59.69-8.65c2.2 0 3.6 1.14 3.6 2.91v.05c0 1.87-1.35 2.9-3.62 2.9h-4.47v-5.86zm-7.56 8.65h7.79c2.19 0 3.91-.64 5.04-1.74a5.28 5.28 0 0 0 1.44-3.77v-.05c0-2.87-1.72-4.59-4.14-5.29l4.72-6.61h-3.64l-4.3 6.09h-3.84v-6.1h-3.07zm46.28-8.78v.05c0 3.4-2.47 6.21-5.94 6.21s-5.9-2.77-5.9-6.16v-.05c0-3.4 2.48-6.19 5.95-6.19s5.89 2.75 5.89 6.14m-15.05 0v.05a8.95 8.95 0 0 0 9.16 9.03c5.36 0 9.1-4.07 9.1-8.98v-.05a8.95 8.95 0 0 0-9.15-9.03 8.87 8.87 0 0 0-9.1 8.98m45.42-1.74l-3.02 6.98-3-6.98zm-4.4 10.65h2.85l7.69-17.6h-3.25l-1.77 4.23h-8.26l-1.8-4.22h-3.14zm30.55-2.92v-11.88h3.46c3.66 0 6.05 2.47 6.05 5.9v.04c0 3.42-2.39 5.94-6.05 5.94zm-3.06 2.8h6.52c5.48 0 9.27-3.78 9.27-8.7v-.04c0-4.92-3.79-8.73-9.27-8.73h-6.52zm62.49-8.66c2.2 0 3.59 1.14 3.59 2.91v.05c0 1.87-1.35 2.9-3.62 2.9h-4.46v-5.86zm-7.57 8.65h7.79c2.2 0 3.92-.64 5.04-1.74a5.28 5.28 0 0 0 1.45-3.77v-.05c0-2.87-1.72-4.59-4.14-5.29l4.71-6.61h-3.64l-4.3 6.09h-3.83v-6.1h-3.08zm31.74-10.05v10.05h3.06v-9.92c0-3.25 1.68-4.97 4.42-4.97 2.72 0 4.4 1.62 4.4 4.84v10.05h3.06v-9.9c0-5.22-2.95-7.84-7.5-7.84s-7.44 2.62-7.44 7.69m33.12 10.05h2.84l9.36-12.07v12.07h3.02V285.7h-2.57l-9.63 12.42V285.7h-3.02zm33.68 0h2.84l9.36-12.07v12.07h3.01V285.7h-2.57l-9.63 12.42V285.7h-3.02zm33.67 0h12.94v-2.74h-9.87v-4.54h8.76v-2.75h-8.76v-4.69h10v-2.74h-13.07zm38.23-8.65c2.2 0 3.6 1.14 3.6 2.91v.05c0 1.87-1.35 2.9-3.62 2.9h-4.47v-5.86zm-7.55 8.65h7.78c2.2 0 3.92-.64 5.04-1.74a5.28 5.28 0 0 0 1.45-3.77v-.05c0-2.87-1.72-4.59-4.15-5.29l4.72-6.61h-3.64l-4.29 6.09h-3.85v-6.1h-3.06zm30.83-14.92l1.84 2.2c1.67-1.45 3.37-2.27 5.51-2.27 1.9 0 3.1.9 3.1 2.2v.04c0 1.25-.7 1.92-3.94 2.67-3.72.9-5.82 2-5.82 5.22v.05c0 3 2.5 5.06 5.97 5.06 2.54 0 4.57-.77 6.34-2.2l-1.65-2.31a7.95 7.95 0 0 1-4.74 1.8c-1.8 0-2.85-.93-2.85-2.08v-.05c0-1.34.8-1.94 4.17-2.74 3.7-.9 5.59-2.22 5.59-5.12v-.05c0-3.26-2.57-5.2-6.24-5.2-2.67 0-5.19.91-7.28 2.78" fill="#6f767f"/></g></svg>